<svg version="1.2" baseProfile="tiny-ps" xmlns="http://www.w3.org/2000/svg" viewBox="0 0 768 896" width="768" height="896">
	<title>Layer</title>
	<style>
		tspan { white-space:pre }
		.s0 { fill: #ffffff } 
	</style>
	<path id="Layer" fill-rule="evenodd" class="s0" d="m142.1 677.7v-395.3h486v395.2c0 23.4-19.1 42.5-42.6 42.5h-48.7v120.4c0 30.6-24.4 55.4-54.6 55.4c-30.1 0-54.6-24.9-54.6-55.4v-120.4h-85v120.5c0 30.6-24.4 55.4-54.6 55.4c-30.1 0-54.6-24.9-54.6-55.4v-120.4h-48.7c-23.5 0-42.6-19.1-42.6-42.5zm357.1-600.1c71.3 33.2 121.4 96.1 128 169.7h-486c6.4-73.5 56.4-136.4 127.8-169.6l-44.9-65c-2.6-4-2-9 1.5-11.4c3.5-2.5 8.5-1.2 11.1 2.6l46.6 67.5c30.7-12.1 64.9-18.8 100.8-18.8c35.9 0 70.1 6.7 100.8 18.8l46.6-67.6c2.6-3.8 7.6-5 11.1-2.6c3.5 2.5 4.1 7.6 1.5 11.4l-44.9 65zm-217.7 102.5c3.53-0.01 7.02-0.71 10.28-2.07c3.26-1.36 6.22-3.34 8.72-5.83c2.5-2.5 4.48-5.46 5.83-8.72c1.36-3.26 2.06-6.75 2.07-10.28c0-10.88-6.55-20.69-16.61-24.85c-10.05-4.16-21.62-1.86-29.32 5.83c-7.69 7.69-9.99 19.26-5.83 29.32c4.16 10.05 13.97 16.61 24.85 16.61zm208.4 0c3.53-0.01 7.02-0.71 10.28-2.07c3.26-1.36 6.22-3.34 8.72-5.83c2.5-2.5 4.48-5.46 5.83-8.72c1.36-3.26 2.06-6.75 2.07-10.28c0-10.88-6.55-20.69-16.61-24.85c-10.05-4.16-21.62-1.86-29.32 5.83c-7.69 7.69-9.99 19.26-5.83 29.32c4.16 10.05 13.97 16.61 24.85 16.61zm278 156v216.5c0 30.6-24.4 55.4-54.6 55.4c-30.1 0-54.6-24.9-54.6-55.4v-216.4c0-30.6 24.4-55.4 54.6-55.4c30.3 0 54.7 24.7 54.6 55.3zm-658.6 0v216.5c0 30.6-24.4 55.4-54.6 55.4c-30.1 0-54.6-24.9-54.6-55.4v-216.4c0-30.6 24.4-55.4 54.6-55.4c30.1 0 54.6 24.7 54.6 55.3z" />
</svg>