<svg version="1.2" baseProfile="tiny-ps" xmlns="http://www.w3.org/2000/svg" viewBox="0 0 45 55" width="45" height="55">
	<title>Folder 4</title>
	<style>
		tspan { white-space:pre }
		.s0 { fill: #ffffff } 
	</style>
	<g id="Folder 4">
		<g id="Folder 3">
			<g id="Folder 2">
				<path id="XMLID_229_" class="s0" d="m13.73 13.06c0.05 0 0.09 0 0.14 0c2 0 3.88 0.75 5.54 1.41c1.24 0.49 2.32 0.92 3.15 0.92c0.74 0 1.8-0.42 3.04-0.91c1.79-0.71 4.02-1.59 6.35-1.59c0.3 0 0.59 0.01 0.88 0.04c1.98 0.09 6.9 0.79 10.11 5.49c0.07 0.1 0.09 0.22 0.07 0.34c-0.02 0.12-0.09 0.22-0.2 0.29l-0.04 0.03c-0.93 0.58-5.59 3.76-5.53 9.78c0.06 7.4 6.19 10.12 6.88 10.4c0.01 0 0.03 0.01 0.03 0.01c0.21 0.1 0.31 0.33 0.24 0.55l-0.02 0.05c-0.38 1.21-1.5 4.39-3.74 7.67c-2.15 3.14-4.58 6.69-8.54 6.76c-1.85 0.03-3.11-0.51-4.32-1.04c-1.23-0.53-2.51-1.09-4.51-1.09c-2.1 0-3.44 0.57-4.74 1.12c-1.15 0.49-2.35 1-4 1.07c-0.07 0-0.13 0-0.2 0c-3.52 0-6.09-3.29-8.62-6.96c-5.08-7.34-8-19.44-3.41-27.42c2.42-4.2 6.8-6.86 11.44-6.93z" />
				<path id="XMLID_230_" class="s0" d="m33.3 0.4c0.33 2.97-0.75 6.29-2.88 8.87c-2.02 2.45-4.99 3.97-7.74 3.97c-0.19 0-0.39-0.01-0.58-0.02c-0.21-0.02-0.38-0.18-0.41-0.39c-0.44-3.33 1.23-6.64 2.94-8.62c2.01-2.36 5.39-4.09 8.2-4.2c0.23-0.01 0.44 0.16 0.46 0.4z" />
			</g>
		</g>
	</g>
</svg>