<svg version="1.2" baseProfile="tiny-ps" xmlns="http://www.w3.org/2000/svg" viewBox="0 0 60 52" width="60" height="52">
	<title>Layer</title>
	<style>
		tspan { white-space:pre }
		.s0 { fill: #ffffff } 
	</style>
	<g id="Layer">
		<path id="Layer" fill-rule="evenodd" class="s0" d="m44 37.84v2.77c0 0.49-0.36 0.91-0.85 0.99l-1.52 0.23c-0.68 0.1-1.23 0.53-1.51 1.16c-0.28 0.63-0.21 1.32 0.17 1.89l0.82 1.22c0.27 0.4 0.22 0.93-0.12 1.27l-1.96 1.96c-0.35 0.35-0.9 0.39-1.3 0.1l-0.87-0.64c-0.56-0.41-1.28-0.5-1.92-0.23c-0.64 0.27-1.09 0.83-1.19 1.52l-0.16 1.06c-0.08 0.49-0.49 0.85-0.99 0.85h-2.77c-0.48 0-0.89-0.34-0.98-0.81l-0.28-1.44c-0.13-0.68-0.57-1.21-1.22-1.46c-0.64-0.25-1.33-0.16-1.88 0.24l-1.24 0.91c-0.4 0.29-0.95 0.25-1.3-0.1l-1.96-1.96c-0.34-0.34-0.39-0.87-0.12-1.27l0.82-1.22c0.39-0.57 0.45-1.26 0.17-1.9c-0.28-0.63-0.82-1.05-1.51-1.16l-1.52-0.23c-0.49-0.07-0.85-0.49-0.85-0.99v-2.77c0-0.48 0.34-0.89 0.81-0.98l1.44-0.28c0.68-0.13 1.21-0.57 1.46-1.22c0.25-0.64 0.16-1.33-0.25-1.88l-0.91-1.24c-0.29-0.4-0.25-0.95 0.1-1.3l1.96-1.96c0.34-0.34 0.87-0.39 1.27-0.12l1.57 1.06c0.56 0.38 1.24 0.45 1.86 0.19c0.62-0.26 1.05-0.79 1.18-1.45l0.36-1.87c0.09-0.47 0.5-0.81 0.98-0.81h2.77c0.49 0 0.91 0.36 0.99 0.85l0.23 1.52c0.1 0.68 0.53 1.23 1.16 1.51c0.63 0.28 1.33 0.21 1.89-0.18l1.22-0.82c0.4-0.27 0.93-0.22 1.27 0.12l1.96 1.96c0.35 0.35 0.39 0.9 0.1 1.3l-0.91 1.24c-0.41 0.56-0.5 1.24-0.25 1.88c0.25 0.64 0.79 1.09 1.46 1.22l1.44 0.28c0.47 0.09 0.81 0.5 0.81 0.98zm-2 0.83l-0.63-0.12c-1.35-0.26-2.45-1.17-2.95-2.45c-0.5-1.28-0.32-2.7 0.49-3.8l0.4-0.54l-0.77-0.77l-0.53 0.36c-1.13 0.77-2.56 0.9-3.82 0.35c-1.25-0.55-2.13-1.68-2.34-3.04l-0.1-0.67h-1.09l-0.2 1.05c-0.25 1.31-1.14 2.41-2.38 2.92c-1.24 0.51-2.64 0.37-3.75-0.38l-0.89-0.6l-0.77 0.77l0.4 0.54c0.81 1.11 0.99 2.53 0.49 3.8c-0.5 1.27-1.6 2.19-2.95 2.45l-0.63 0.12v1.09l0.67 0.1c1.35 0.21 2.49 1.08 3.04 2.34c0.55 1.25 0.42 2.68-0.35 3.81l-0.36 0.53l0.77 0.77l0.54-0.4c1.1-0.81 2.52-0.99 3.8-0.49c1.27 0.5 2.19 1.6 2.45 2.95l0.12 0.63h1.09l0.03-0.22c0.21-1.38 1.11-2.53 2.41-3.06c1.29-0.54 2.74-0.36 3.87 0.47l0.18 0.13l0.77-0.77l-0.36-0.53c-0.77-1.13-0.9-2.56-0.35-3.81c0.55-1.26 1.68-2.13 3.04-2.34l0.67-0.1v-1.09z" />
		<path id="Layer" fill-rule="evenodd" class="s0" d="m36 39c0 2.76-2.24 5-5 5c-2.76 0-5-2.24-5-5c0-2.76 2.24-5 5-5c2.76 0 5 2.24 5 5zm-2 0c0-1.65-1.35-3-3-3c-1.65 0-3 1.35-3 3c0 1.65 1.35 3 3 3c1.65 0 3-1.35 3-3z" />
		<path id="Layer" class="s0" d="m60 27.97c0 6.63-5.4 12.03-12.03 12.03c-0.55 0-1-0.45-1-1c0-0.55 0.45-1 1-1c5.53 0 10.03-4.5 10.03-10.03c0-4.81-3.51-9.1-8.17-9.99c-0.14-0.02-2.46-0.33-4.68 0c-0.05 0.01-0.1 0.01-0.15 0.01c-0.49 0-0.91-0.35-0.99-0.85c-0.08-0.55 0.29-1.06 0.84-1.14c1.53-0.23 3.06-0.2 4.08-0.12c-0.67-7.75-7.1-13.89-14.85-13.89c-4.7 0-9.42 2.38-12.28 6.13c1.95 1.65 3.2 4.12 3.2 6.87c0 0.55-0.45 1-1 1c-0.55 0-1-0.45-1-1c0-2.46-1.28-4.63-3.21-5.88c-0.23-0.15-0.46-0.28-0.7-0.4c-0.07-0.03-0.14-0.07-0.21-0.1c-0.27-0.12-0.55-0.23-0.84-0.32c-0.03-0.01-0.07-0.02-0.11-0.03c-0.26-0.07-0.52-0.13-0.79-0.18c-0.08-0.01-0.15-0.03-0.23-0.04c-0.3-0.04-0.61-0.07-0.92-0.07c-3.86 0-7 3.14-7 7c0 0.09 0.01 0.17 0.01 0.26l0.01 0.19l-0.01 0.18c-0.01 0.12-0.01 0.25-0.01 0.37v0.63l-0.57 0.27c-3.73 1.79-6.43 6.1-6.43 10.25c0 5.98 4.87 10.85 10.85 10.85c0.55 0 1 0.45 1 1c0 0.55-0.45 1-1 1c-7.08 0-12.84-5.76-12.84-12.85c0-4.75 2.86-9.51 7.02-11.77c-0.01-0.13-0.02-0.25-0.02-0.38c0-4.96 4.04-9 9-9c0.34 0 0.68 0.02 1.01 0.06c0.1 0.01 0.2 0.03 0.3 0.05c0.23 0.04 0.46 0.07 0.69 0.12c0.12 0.03 0.23 0.06 0.35 0.09c0.21 0.06 0.42 0.12 0.62 0.19c0.11 0.04 0.23 0.08 0.34 0.13c0.2 0.08 0.41 0.17 0.6 0.27c0.08 0.04 0.16 0.06 0.23 0.1c3.26-4.34 8.52-7.01 13.95-7.01c8.94 0 16.36 7.19 16.89 16.19c5.2 1.37 9.02 6.29 9.02 11.78z" />
	</g>
</svg>