<svg version="1.2" baseProfile="tiny-ps" xmlns="http://www.w3.org/2000/svg" viewBox="0 0 18 18" width="18" height="18">
	<title>Layer</title>
	<style>
		tspan { white-space:pre }
		.s0 { fill: #ffffff } 
	</style>
	<path id="Layer" fill-rule="evenodd" class="s0" d="m2.5 0h13c1.38 0 2.5 1.12 2.5 2.5v13c0 1.38-1.12 2.5-2.5 2.5h-13c-1.38 0-2.5-1.12-2.5-2.5v-13c0-1.38 1.12-2.5 2.5-2.5zm0 1c-0.83 0-1.5 0.67-1.5 1.5v13c0 0.83 0.67 1.5 1.5 1.5h13c0.83 0 1.5-0.67 1.5-1.5v-13c0-0.83-0.67-1.5-1.5-1.5h-13zm2.5 10.5c0 0.28-0.22 0.5-0.5 0.5c-0.28 0-0.5-0.22-0.5-0.5v-3c0-0.28 0.22-0.5 0.5-0.5c0.28 0 0.5 0.22 0.5 0.5v3zm-1-5.5h1v1h-1v-1zm2 4.5v-3c0-0.83 0.67-1.5 1.5-1.5h1c0.83 0 1.5 0.67 1.5 1.5v3c0 0.83-0.67 1.5-1.5 1.5h-1c-0.83 0-1.5-0.67-1.5-1.5zm1 0c0 0.28 0.22 0.5 0.5 0.5h1c0.28 0 0.5-0.22 0.5-0.5v-3c0-0.28-0.22-0.5-0.5-0.5h-1c-0.28 0-0.5 0.22-0.5 0.5v3zm8-3c0 0.28-0.22 0.5-0.5 0.5c-0.28 0-0.5-0.22-0.5-0.5c0-0.28-0.22-0.5-0.5-0.5h-1c-0.28 0-0.5 0.22-0.5 0.5v0.28c0 0.22 0.14 0.41 0.34 0.47l1.63 0.54c0.61 0.2 1.03 0.78 1.03 1.42v0.28c0 0.83-0.67 1.5-1.5 1.5h-1c-0.83 0-1.5-0.67-1.5-1.5c0-0.28 0.22-0.5 0.5-0.5c0.28 0 0.5 0.22 0.5 0.5c0 0.28 0.22 0.5 0.5 0.5h1c0.28 0 0.5-0.22 0.5-0.5v-0.28c0-0.22-0.14-0.41-0.34-0.47l-1.63-0.54c-0.61-0.2-1.03-0.78-1.03-1.42v-0.28c0-0.83 0.67-1.5 1.5-1.5h1c0.83 0 1.5 0.67 1.5 1.5z" />
</svg>