<svg version="1.2" baseProfile="tiny-ps" xmlns="http://www.w3.org/2000/svg" viewBox="0 0 400 400" width="400" height="400">
	<title>logo</title>
	<style>
		tspan { white-space:pre }
		.s0 { fill: #000000 } 
		.s1 { fill: #ffffff } 
		.s2 { fill: none } 
	</style>
	<g id="Folder 4">
		<path id="Shape 3" class="s0" d="m0 0h400v400h-400v-400z" />
		<g id="Layer">
			<g id="Folder 1">
				<path id="Layer" fill-rule="evenodd" class="s1" d="m132 238.76v32.3c0 1.52-1.24 2.76-2.76 2.76h-19.25v6.25h7.49c1.41 0 2.55 1.15 2.55 2.55c0 1.41-1.15 2.55-2.55 2.55h-27.96c-1.41 0-2.55-1.15-2.55-2.55c0-1.41 1.15-2.55 2.55-2.55h7.49v-6.25h-19.25c-1.52 0-2.76-1.24-2.76-2.76v-32.3c0-1.52 1.24-2.76 2.76-2.76h51.48c1.52 0 2.76 1.24 2.76 2.76zm-4.14 1.38h-48.72v29.54h48.72v-29.54z" />
				<path id="Layer" class="s1" d="m87.08 253.97v-0.12c0-0.66 0.38-1.26 0.98-1.53l8.71-4.05c0.22-0.1 0.47-0.16 0.71-0.16c0.33 0 0.64 0.09 0.91 0.26c0.49 0.31 0.78 0.85 0.78 1.43v0.04c0 0.66-0.38 1.26-0.98 1.53l-5.45 2.53l5.45 2.53c0.59 0.28 0.98 0.88 0.98 1.53v0.04c0 0.58-0.29 1.11-0.78 1.43c-0.27 0.17-0.59 0.27-0.91 0.27c-0.25 0-0.49-0.05-0.71-0.16l-8.71-4.05c-0.59-0.28-0.98-0.88-0.98-1.53z" />
				<path id="Layer" class="s1" d="m99 262.24l5.74-17.77c0.23-0.7 0.87-1.18 1.61-1.18h0.04c0.54 0 1.05 0.26 1.37 0.69c0.32 0.44 0.41 1 0.24 1.51l-5.74 17.77c-0.22 0.7-0.87 1.18-1.61 1.18h-0.04c-0.54 0-1.05-0.26-1.37-0.69c-0.32-0.43-0.41-1-0.25-1.51z" />
				<path id="Layer" class="s1" d="m107.83 249.7v-0.04c0-0.58 0.29-1.11 0.78-1.43c0.27-0.17 0.59-0.26 0.91-0.26c0.25 0 0.49 0.05 0.71 0.16l8.71 4.05c0.59 0.28 0.98 0.88 0.98 1.53v0.12c0 0.65-0.38 1.26-0.98 1.53l-8.71 4.05c-0.23 0.1-0.47 0.16-0.71 0.16c-0.32 0-0.64-0.09-0.91-0.27c-0.49-0.31-0.78-0.85-0.78-1.43v-0.04c0-0.66 0.38-1.26 0.98-1.53l5.45-2.53l-5.45-2.53c-0.6-0.28-0.98-0.88-0.98-1.54v0z" />
			</g>
			<path id="Layer" fill-rule="evenodd" class="s1" d="m197.78 251.3c4.11 0.8 7.22 4.41 7.22 8.74c0 4.92-3.98 8.9-8.9 8.9h-0.98c0.1 0.75 0.15 1.52 0.15 2.29c0 9.8-7.97 17.77-17.77 17.77c-9.8 0-17.77-7.97-17.77-17.77c0-0.89 0.07-1.76 0.19-2.62c-5.68-1.29-9.92-6.39-9.92-12.46c0-6.5 4.84-11.85 11.11-12.67c2.02-5.53 7.33-9.48 13.57-9.48c5.97 0 11.1 3.63 13.29 8.8c4.97 0.06 9.08 3.72 9.81 8.5zm-12.36 17.64h5.06c-0.71-4.04-3.27-7.45-6.76-9.33c0.97 2.69 1.52 5.99 1.69 9.33zm-1.69 13.91c3.49-1.87 6.04-5.29 6.76-9.33h-5.06c-0.17 3.33-0.73 6.63-1.69 9.33zm-9.56-13.91h6.68c-0.39-6.98-2.49-10.64-3.36-10.89c-0.01 0-0.01 0-0.02 0c-0.81 0.25-2.91 3.91-3.3 10.89zm6.68 4.58h-6.68c0.38 6.94 2.46 10.6 3.33 10.89c0.88-0.29 2.95-3.95 3.34-10.89zm-9.57-13.91c-3.49 1.89-6.05 5.29-6.76 9.33h5.06c0.18-3.33 0.73-6.63 1.69-9.33zm-6.76 13.91c0.72 4.04 3.27 7.45 6.76 9.33c-0.97-2.69-1.53-5.99-1.69-9.33h-5.06zm32.41-17.7c-1.91-0.37-3.39-1.9-3.68-3.83c-0.19-1.26-0.83-2.41-1.8-3.26c-0.98-0.84-2.22-1.32-3.51-1.34c-1.83-0.02-3.47-1.12-4.19-2.81c-1.55-3.64-5.11-5.99-9.06-5.99c-4.12 0-7.83 2.6-9.23 6.48c-0.59 1.62-2.03 2.76-3.74 2.99c-4.14 0.54-7.23 4.15-7.11 8.35c0.11 3.86 2.93 7.02 6.59 7.76c2.74-6.29 9.01-10.7 16.3-10.7c7.35 0 13.68 4.49 16.38 10.87h2.17c2.3 0 4.23-1.78 4.34-4.09c0.1-2.14-1.39-4.03-3.47-4.43z" />
		</g>
		<path id="Shape 2" class="s1" d="m28 212.87v-1h343.07v1h-343.07z" />
		<g id="full-text">
			<g id="عب">
				<path id="ع" fill="#ffffff" aria-label="ع"  d="m146.11 128.78q-4.77 0-8.19-1.8q-3.42-1.8-5.26-5.04q-1.84-3.24-1.84-7.6q0-5.9 2.34-10.44q2.34-4.55 7.25-8.69q-2.61-0.95-3.65-2.43q-1.03-1.53-1.03-3.64q0-2.34 1.08-4.36q1.08-2.03 2.79-3.87q1.75-1.84 3.69-3.65q1.44-1.3 2.92-1.93q1.49-0.63 3.02-0.63q1.62 0 2.79 0.9q1.17 0.86 1.17 2.47q0 0.9-0.45 1.8q-0.41 0.85-1.22 1.35l-0.54-0.05q-0.81-0.86-1.89-1.21q-1.08-0.36-1.98-0.36q-1.84 0-3.1 0.63q-1.26 0.63-1.89 1.62q-0.63 0.95-0.63 1.89q0 1.93 1.62 3.19q1.66 1.22 4.59 1.22q0.94 0 1.39-0.05q0.5-0.09 0.95-0.27q0.45-0.23 1.3-0.68q1.58-0.85 3.2-1.84q1.66-1.03 3.19-2.16l0.77 0.54q-0.36 0.95-1.71 2.84q-1.26 1.8-3.15 2.84q-0.94 0.49-2.43 1.35q-1.44 0.85-3.42 2.16q-3.42 2.2-6.03 4.5q-2.61 2.25-4.09 4.95q-1.44 2.7-1.44 6.12q0 1.76 0.58 3.51q0.63 1.71 2.03 3.15q1.44 1.44 3.83 2.3q2.43 0.85 6.07 0.85q2.52 0 5.31-0.58q2.79-0.59 5.58-1.98q2.79-1.39 5.26-3.83q2.52-2.43 4.41-6.12l1.48 0.49q-1.21 3.15-2.92 6.34q-1.71 3.2-3.91 6.12q-2.16 2.88-4.91 5.17q-2.7 2.25-5.94 3.6q-3.2 1.3-6.97 1.3z" />
				<path id="بدالعزيز" fill="#000000" aria-label="بدالعزيزو"  d="m92.42 170.47l-0.2-0.63q1.18-0.57 2.5-1.38q1.33-0.8 2.78-1.8q2.88-1.98 3.17-3.93l-0.13-0.03q-0.38 0.2-0.92 0.35q-0.53 0.13-1.25 0.13q-0.67 0-1.3-0.27q-0.63-0.3-1.03-0.85q-0.4-0.55-0.4-1.27q0-0.45 0.15-1.05q0.15-0.6 0.48-1.3l1-2.02q0.75-1.53 2.17-1.53q1.1 0 1.75 0.78q0.67 0.77 0.95 2q0.3 1.2 0.3 2.55q0 1.3-0.35 2.58q-0.32 1.27-0.82 2.35q-0.48 1.05-0.95 1.78q-0.45 0.7-0.73 0.92q-0.32 0.25-1.22 0.65q-0.88 0.38-2 0.78q-1.13 0.4-2.2 0.72q-1.05 0.32-1.75 0.47z" />
				<path id="بدالعزيز" fill="#ffffff" aria-label="بدالعزيزو"  d="m111.97 154.57h-0.2q-0.68-0.65-1.05-0.97q-0.35-0.35-0.63-0.57q-0.25-0.22-0.63-0.47v-0.25q0.18-0.28 0.5-0.68q0.33-0.4 0.7-0.8q0.4-0.42 0.73-0.75q0.32-0.32 0.47-0.42h0.25q1.03 0.65 1.58 1.17q0.58 0.53 0.58 1.13q0 0.63-0.73 1.33q-0.7 0.7-1.58 1.3zm-9.05 15.78l-0.2-0.63q2.45-1.7 5.25-3.82q1.15-0.88 1.85-1.5q0.72-0.63 1.22-1.25q0.5-0.63 1-1.47q0.88-1.45 1.9-2.08q1.05-0.63 1.8-0.63q1.1 0 1.1 0.5q0 0.55-0.65 1.22q-0.63 0.68-1.73 1.03q-0.82 0.25-1.27 0.75q-0.45 0.5-0.78 1.3q-0.3 0.78-0.67 1.85q-0.75 2.15-1.13 2.45q-0.2 0.18-0.95 0.45q-0.75 0.25-2 0.63q-2.58 0.75-4.75 1.2zm12.48 1.68h-0.2q-0.67-0.65-1.05-0.97q-0.35-0.35-0.63-0.58q-0.25-0.22-0.63-0.47v-0.25q0.17-0.28 0.5-0.68q0.32-0.4 0.7-0.8q0.4-0.43 0.73-0.75q0.33-0.33 0.47-0.43h0.25q0.65 0.4 1.05 0.75q0.4 0.33 0.65 0.6q0.53-0.63 1.03-1.13q0.5-0.52 0.72-0.67h0.25q1.03 0.65 1.58 1.17q0.58 0.53 0.58 1.13q0 0.63-0.72 1.33q-0.7 0.7-1.58 1.3h-0.2q-0.53-0.5-0.88-0.8q-0.33-0.33-0.63-0.58q-0.55 0.85-2 1.83zm-3.45-8.35q-0.58 0-0.58-0.58q0-0.1 0.03-0.25q0.05-0.15 0.2-0.42l1.75-3.15q0.35-0.65 1.03-1.28q0.67-0.63 1.7-1.18q1.02-0.57 1.65-0.97q0.63-0.4 0.88-0.65q0.45-0.45 0.88-1.72l0.75 0.1q-0.92 4.68-2.07 6q-0.55 0.65-1.33 1.13q-0.78 0.48-1.73 0.8q-1.92 0.65-2.22 1.4q-0.3 0.78-0.92 0.78zm16.6-5.73h-0.2q-0.67-0.65-1.05-0.97q-0.35-0.35-0.63-0.57q-0.25-0.22-0.63-0.47v-0.25q0.17-0.28 0.5-0.68q0.32-0.4 0.7-0.8q0.4-0.42 0.72-0.75q0.33-0.32 0.47-0.42h0.25q1.03 0.65 1.58 1.17q0.57 0.53 0.57 1.13q0 0.63-0.72 1.33q-0.7 0.7-1.57 1.3zm-8.15 21.15l-0.72-0.78q3.6-3.13 7.07-8.92q3.43-5.75 5.68-7.7q2.22-1.92 4.43-2.92l0.55 0.13q0.45 0 0.75 0.25q0.33 0.25 0.33 0.97q0 1.28-1.55 1.93q-1.57 0.65-3.73 2.25q-2.15 1.6-4.6 5.17q-1.42 2.1-2.72 3.8q-1.3 1.7-2.63 3.13q-1.3 1.42-2.85 2.7zm15.45-16.92q-0.53 0-0.8-0.3q-0.25-0.32-0.25-0.68q0-0.77 0.55-1.35q0.55-0.57 1.38-1q0.82-0.42 1.6-0.7q-1.18-1.6-2.5-1.6l-0.2-0.53q0.58-1.38 1.8-2.1q1.25-0.73 3-0.73q1.6 0 2.5 0.65q0.93 0.65 0.93 1.75q0 1.22-1.28 2.63q0.13 0.05 0.3 0.1q0.2 0.05 0.53 0.05q0.58 0 0.78 0.45q0.22 0.45 0.22 0.93q0 0.4-0.15 0.88q-0.13 0.47-0.5 0.82q-0.38 0.33-1.1 0.33q-0.88 0-1.6-0.3q-0.72-0.3-1.25-1.07q-0.4 0.3-1.1 0.72q-0.7 0.43-1.47 0.75q-0.75 0.3-1.38 0.3zm6.8-0.4q-0.47 0-0.75-0.43q-0.25-0.42-0.25-1.2q0-0.88 0.47-1.33q0.5-0.45 1.28-0.45q1.53 0 2.55-0.8q0.78-0.6 1.13-1.27q0.35-0.7 0.45-1.6q0.13-0.92 0.15-2.17l0.13-4.55q0.05-1.97 0.32-3.7q0.3-1.72 0.95-3.3l0.63-1.5l0.63 0.18q-0.17 0.95-0.3 2.15q-0.13 1.2-0.25 3.3l-0.35 5.72q-0.18 2.85-0.78 4.98q-0.6 2.13-1.55 3.4q-1.9 2.58-4.45 2.58zm13.28 3.7l-0.65-0.15q0.1-0.47 0.28-1.8q0.18-1.35 0.28-3.88l0.32-7.18q0.08-1.4 0.17-2.42q0.13-1.03 0.35-1.93q0.22-0.9 0.6-1.85q0.4-0.97 1-2.22l0.63 0.2q-0.17 0.57-0.38 1.85q-0.2 1.25-0.33 3.65l-0.4 7.43q-0.1 2.15-0.6 4.3q-0.47 2.15-1.27 4zm3.8 3.88l-0.2-0.63q1.82-1.03 3.55-2.17q1.73-1.18 3.03-2.43q1.33-1.25 1.9-2.53q0.4-0.88 0.8-2.32q0.42-1.45 0.9-3.43l0.9 0.15q-0.15 1.15-0.25 1.8q-0.07 0.63-0.1 0.92q-0.03 0.3-0.03 0.47q0 1.63 0.88 2.38q0.88 0.73 1.97 0.73q0.6 0 0.85 0.65q0.25 0.63 0.25 1.78q0 1.45-0.58 2.38q-0.57 0.9-1.75 0.9q-1.13 0-1.85-0.6q-0.7-0.6-1.03-1.58q-0.32-0.97-0.32-2.07h-0.1q-0.33 0.88-0.73 1.75q-0.4 0.85-0.85 1.5q-0.42 0.63-0.82 0.88q-0.3 0.18-1.1 0.4q-0.8 0.22-1.8 0.45q-1 0.2-1.95 0.38q-0.95 0.18-1.58 0.25zm13.53 8h-0.2q-0.63-0.63-1-0.95q-0.38-0.35-0.65-0.58q-0.27-0.25-0.65-0.5v-0.25q0.18-0.27 0.5-0.67q0.32-0.4 0.7-0.8q0.4-0.42 0.73-0.75q0.32-0.32 0.47-0.42h0.25q1.03 0.65 1.58 1.17q0.58 0.53 0.58 1.13q0 0.63-0.73 1.33q-0.7 0.7-1.57 1.3zm-1.4-9.35q-0.47 0-0.8-0.57q-0.33-0.58-0.33-1.95q0-1.4 0.58-2.28q0.6-0.9 1.77-0.9q1.03 0 1.85-0.55q0.82-0.57 1.3-1.72l0.7 0.15q-0.2 1.55-0.65 2.95q-0.42 1.4-1.07 2.5q-0.63 1.1-1.47 1.75q-0.85 0.63-1.88 0.63z" />
			</g>
			<path id="|" fill="#ffffff" aria-label="|"  d="m197 199.4h-6.4v-130.4h6.4v130.4z" />
			<g id="ab">
				<path id="A" fill="#ffffff" aria-label="A"  d="m244.3 124h-5.85l-3.44-12.55h-16.38l-3.51 12.55h-5.46l13.97-46.8h6.76l13.91 46.8zm-17.36-41.73l-7.09 24.96h13.98l-6.89-24.96z" />
				<path id="BDULAZIZ" fill="#ffffff" aria-label="BDULAZIZ"  d="m209.25 152h4.47q2.8 0 4.1 1.18q1.33 1.17 1.33 3.25q0 0.7-0.22 1.35q-0.2 0.63-0.6 1.15q-0.38 0.52-0.92 0.92q-0.53 0.38-1.15 0.55q0.68 0.1 1.35 0.4q0.68 0.3 1.2 0.85q0.52 0.53 0.85 1.32q0.32 0.8 0.32 1.93q0 1.38-0.53 2.35q-0.5 0.97-1.35 1.6q-0.85 0.6-1.95 0.88q-1.08 0.28-2.22 0.28h-4.68v-18zm4.53 9.22h-2.4v7.15h2.5q0.75 0 1.43-0.18q0.7-0.17 1.25-0.57q0.55-0.43 0.88-1.07q0.32-0.68 0.32-1.65q0-1.8-1-2.72q-1-0.95-2.97-0.95zm-0.1-7.75h-2.3v6.22h2.3q1.72 0 2.52-0.85q0.83-0.85 0.83-2.35q0-1.6-0.93-2.3q-0.9-0.72-2.42-0.72zm9.8-1.47h3.2q1.77 0 3.25 0.43q1.5 0.4 2.55 1.42q1.08 1.03 1.68 2.78q0.6 1.72 0.6 4.38q0 2.57-0.6 4.3q-0.58 1.72-1.65 2.77q-1.07 1.05-2.55 1.5q-1.47 0.43-3.22 0.43h-3.25v-18zm3.18 1.57h-1.05v14.78h1.1q1.53 0 2.63-0.38q1.13-0.4 1.85-1.28q0.72-0.88 1.07-2.27q0.35-1.4 0.35-3.43q0-3.88-1.42-5.65q-1.43-1.78-4.53-1.78zm11.97-1.57h2.13v12.75q0 1.88 0.78 2.9q0.78 1.03 2.6 1.03q1.82 0 2.63-1.03q0.82-1.03 0.82-2.9v-12.75h2.03v12.78q0 2.75-1.42 4.17q-1.4 1.43-4.05 1.43q-2.65 0-4.07-1.43q-1.43-1.42-1.43-4.17v-12.78zm15.35 0h2.13v16.15h6.92v1.85h-9.05v-18zm23.13 18h-2.25l-1.33-4.82h-6.3l-1.35 4.82h-2.1l5.38-18h2.6l5.35 18zm-6.68-16.05l-2.73 9.6h5.38l-2.65-9.6zm18.18-0.15l-8.03 14.52h7.78v1.68h-10v-1.88l8.05-14.45h-7.47v-1.68h9.68v1.8zm3.5-1.8h2.13v18h-2.13v-18zm15.63 1.8l-8.03 14.52h7.78v1.68h-10v-1.88l8.05-14.45h-7.47v-1.68h9.68v1.8z" />
			</g>
		</g>
		<path id="Shape 1" class="s2" d="m18 49h363v167h-363v-167z" />
		<g id="Folder 3">
			<g id="Folder 2">
				<path id="XMLID_229_" class="s1" d="m239.73 241.06c0.05 0 0.09 0 0.14 0c2 0 3.88 0.75 5.54 1.41c1.24 0.49 2.32 0.92 3.15 0.92c0.74 0 1.8-0.42 3.04-0.91c1.79-0.71 4.02-1.59 6.35-1.59c0.3 0 0.59 0.01 0.88 0.04c1.98 0.09 6.9 0.79 10.11 5.49c0.07 0.1 0.09 0.22 0.07 0.34c-0.02 0.12-0.09 0.22-0.2 0.29l-0.04 0.03c-0.93 0.58-5.59 3.76-5.53 9.78c0.06 7.4 6.19 10.12 6.88 10.4c0.01 0 0.03 0.01 0.03 0.01c0.21 0.1 0.31 0.33 0.24 0.55l-0.02 0.05c-0.38 1.21-1.5 4.39-3.74 7.67c-2.15 3.14-4.58 6.69-8.54 6.76c-1.85 0.03-3.11-0.51-4.32-1.04c-1.23-0.53-2.51-1.09-4.51-1.09c-2.1 0-3.44 0.57-4.74 1.12c-1.15 0.49-2.35 1-4 1.07c-0.07 0-0.13 0-0.2 0c-3.52 0-6.09-3.29-8.62-6.96c-5.08-7.34-8-19.44-3.41-27.42c2.42-4.2 6.8-6.86 11.44-6.93z" />
				<path id="XMLID_230_" class="s1" d="m259.3 228.4c0.33 2.97-0.75 6.29-2.88 8.87c-2.02 2.45-4.99 3.97-7.74 3.97c-0.19 0-0.39-0.01-0.58-0.02c-0.21-0.02-0.38-0.18-0.41-0.39c-0.44-3.33 1.23-6.64 2.94-8.62c2.01-2.36 5.39-4.09 8.2-4.2c0.23-0.01 0.44 0.16 0.46 0.4z" />
			</g>
			<path id="Layer" fill-rule="evenodd" class="s1" d="m302.54 268.25v-22.4h27.54v22.39c0 1.33-1.08 2.41-2.41 2.41h-2.76v6.82c0 1.73-1.38 3.14-3.09 3.14c-1.71 0-3.09-1.41-3.09-3.14v-6.82h-4.82v6.83c0 1.73-1.38 3.14-3.09 3.14c-1.71 0-3.09-1.41-3.09-3.14v-6.82h-2.76c-1.33 0-2.41-1.08-2.41-2.41zm20.23-34c4.04 1.88 6.88 5.45 7.25 9.62h-27.54c0.36-4.16 3.2-7.73 7.24-9.61l-2.54-3.68c-0.15-0.23-0.11-0.51 0.08-0.65c0.2-0.14 0.48-0.07 0.63 0.15l2.64 3.82c1.74-0.69 3.68-1.07 5.71-1.07c2.03 0 3.97 0.38 5.71 1.07l2.64-3.83c0.15-0.22 0.43-0.28 0.63-0.15c0.2 0.14 0.23 0.43 0.08 0.65l-2.54 3.68zm-12.34 5.81c0.2 0 0.4-0.04 0.58-0.12c0.18-0.08 0.35-0.19 0.49-0.33c0.14-0.14 0.25-0.31 0.33-0.49c0.08-0.18 0.12-0.38 0.12-0.58c0-0.62-0.37-1.17-0.94-1.41c-0.57-0.24-1.23-0.11-1.66 0.33c-0.44 0.44-0.57 1.09-0.33 1.66c0.24 0.57 0.79 0.94 1.41 0.94zm11.81 0c0.2 0 0.4-0.04 0.58-0.12c0.18-0.08 0.35-0.19 0.49-0.33c0.14-0.14 0.25-0.31 0.33-0.49c0.08-0.18 0.12-0.38 0.12-0.58c0-0.62-0.37-1.17-0.94-1.41c-0.57-0.24-1.23-0.11-1.66 0.33c-0.44 0.44-0.57 1.09-0.33 1.66c0.24 0.57 0.79 0.94 1.41 0.94zm15.75 8.84v12.27c0 1.73-1.38 3.14-3.09 3.14c-1.71 0-3.09-1.41-3.09-3.14v-12.26c0-1.73 1.38-3.14 3.09-3.14c1.72 0 3.1 1.4 3.09 3.13zm-37.32 0v12.27c0 1.73-1.38 3.14-3.09 3.14c-1.71 0-3.09-1.41-3.09-3.14v-12.26c0-1.73 1.38-3.14 3.09-3.14c1.71 0 3.09 1.4 3.09 3.13z" />
		</g>
	</g>
</svg>